# xmcd
#
# Track frame offsets:
#	182
#	14310
#	32120
#	46625
#	59507
#	76197
#	93505
#	108352
#	124887
#	136732
#	152160
#	171375
#	186060
#	201812
#	217062
#	232590
#	243847
#	258365
#	274217
#	290672
#
# Disc length: 4160
#
# Revision: 3
# Processed by: cddbd v1.5.1PL0 Copyright (c) Steve Scherf et al.
# Submitted via: EasyCDDAExtractor 5.1.0
# Normalized: r2:DSETVAR1
#
DISCID=15103e14
DTITLE=Various Artist - ALL STAR COUNTRY DISC 1
DYEAR=1900
DGENRE=Country
TTITLE0=Randy Travis - On The Other Hand
TTITLE1=Dan Seals and marie Osmond - Meet Me In Montana
TTITLE2=Don Williams - I'll Never Be Love Again
TTITLE3=The Forrester Sisters - Mama's Never Seen Those Eyes
TTITLE4=Gary Morris - I'll Never Stop Loving You
TTITLE5=Trio - To Know Him Is To Love Him
TTITLE6=George Strait - Does Fort Worth Ever Cross Your Mind
TTITLE7=Southern Pacific - A Girl Like Emmylou
TTITLE8=Emmylou Harris - If I Could Only Win Your Love
TTITLE9=John Conlee - As Long As I'm Rockin' With You
TTITLE10=Alabama - (There's A) Fire In The Night
TTITLE11=The Judds - Mama's He's Crazy
TTITLE12=Holly Dunn - Daddy's Hands
TTITLE13=Nitty Gritty Dirt band - Fishin' In The Dark
TTITLE14=Bellamy brothers - I Need More Of You
TTITLE15=Hank Williams, Jr. - Mind Your Own Business
TTITLE16=Barbera Mandrell - No One Mends A Broken Heart Like You
TTITLE17=Highway 101 - The Bed You Made For Me
TTITLE18=Michael Johnson - Give Me Wings
TTITLE19=Ronnie Milsap - How Do I Turn You On
EXTD=
EXTT0=
EXTT1=
EXTT2=
EXTT3=
EXTT4=
EXTT5=
EXTT6=
EXTT7=
EXTT8=
EXTT9=
EXTT10=
EXTT11=
EXTT12=
EXTT13=
EXTT14=
EXTT15=
EXTT16=
EXTT17=
EXTT18=
EXTT19=
PLAYORDER=
